HIERARCHY
ROOT Hips
{
	OFFSET -0.001795 -0.223333 0.028219
	CHANNELS 6 Xposition Yposition Zposition Zrotation Yrotation Xrotation 
	JOINT LeftUpLeg
	{
		OFFSET 0.069520 -0.091406 -0.006815
		CHANNELS 3 Zrotation Yrotation Xrotation
		JOINT LeftLeg
		{
			OFFSET 0.034277 -0.375199 -0.004496
			CHANNELS 3 Zrotation Yrotation Xrotation
			JOINT LeftFoot
			{
				OFFSET -0.013596 -0.397961 -0.043693
				CHANNELS 3 Zrotation Yrotation Xrotation
				JOINT LeftToe
				{
					OFFSET 0.026358 -0.055791 0.119288
					CHANNELS 3 Zrotation Yrotation Xrotation
					End Site
					{
						OFFSET 0.000000 0.000000 0.000000
					}
				}
			}
		}
	}
	JOINT RightUpLeg
	{
		OFFSET -0.067670 -0.090522 -0.004320
		CHANNELS 3 Zrotation Yrotation Xrotation
		JOINT RightLeg
		{
			OFFSET -0.038290 -0.382569 -0.008850
			CHANNELS 3 Zrotation Yrotation Xrotation
			JOINT RightFoot
			{
				OFFSET 0.015774 -0.398415 -0.042312
				CHANNELS 3 Zrotation Yrotation Xrotation
				JOINT RightToe
				{
					OFFSET -0.025372 -0.048144 0.123348
					CHANNELS 3 Zrotation Yrotation Xrotation
					End Site
					{
						OFFSET 0.000000 0.000000 0.000000
					}
				}
			}
		}
	}
	JOINT Spine
	{
		OFFSET -0.002533 0.108963 -0.026696
		CHANNELS 3 Zrotation Yrotation Xrotation
		JOINT Spine1
		{
			OFFSET 0.005487 0.135180 0.001092
			CHANNELS 3 Zrotation Yrotation Xrotation
			JOINT Spine2
			{
				OFFSET 0.001457 0.052922 0.025425
				CHANNELS 3 Zrotation Yrotation Xrotation
				JOINT Neck
				{
					OFFSET -0.002778 0.213870 -0.042857
					CHANNELS 3 Zrotation Yrotation Xrotation
					JOINT Head
					{
						OFFSET 0.005152 0.064970 0.051349
						CHANNELS 3 Zrotation Yrotation Xrotation
						End Site
						{
							OFFSET 0.000000 0.000000 0.000000
						}
					}
				}
				JOINT LeftShoulder
				{
					OFFSET 0.078845 0.121749 -0.034090
					CHANNELS 3 Zrotation Yrotation Xrotation
					JOINT LeftArm
					{
						OFFSET 0.090977 0.030469 -0.008868
						CHANNELS 3 Zrotation Yrotation Xrotation
						JOINT LeftForeArm
						{
							OFFSET 0.259612 -0.012772 -0.027456
							CHANNELS 3 Zrotation Yrotation Xrotation
							JOINT LeftHand
							{
								OFFSET 0.249234 0.008986 -0.001171
								CHANNELS 3 Zrotation Yrotation Xrotation
								End Site
								{
									OFFSET 0.000000 0.000000 0.000000
								}
							}
						}
					}
				}
				JOINT RightShoulder
				{
					OFFSET -0.081759 0.118833 -0.038615
					CHANNELS 3 Zrotation Yrotation Xrotation
					JOINT RightArm
					{
						OFFSET -0.096012 0.032551 -0.009143
						CHANNELS 3 Zrotation Yrotation Xrotation
						JOINT RightForeArm
						{
							OFFSET -0.253742 -0.013329 -0.021401
							CHANNELS 3 Zrotation Yrotation Xrotation
							JOINT RightHand
							{
								OFFSET -0.255298 0.007772 -0.005559
								CHANNELS 3 Zrotation Yrotation Xrotation
								End Site
								{
									OFFSET 0.000000 0.000000 0.000000
								}
							}
						}
					}
				}
			}
		}
	}
}
MOTION
Frames: 10
Frame Time: 0.050000
0.000000 0.938023 0.000000 -0.535995 -5.858659 1.782658 2.836357 0.131053 2.005195 -6.356969 0.762308 -1.233425 4.834618 11.342853 7.378960 0.000000 0.000000 0.000000 -3.364112 0.111490 0.346692 2.546898 -0.260401 -1.522535 -4.883829 -14.149325 9.195084 0.000000 0.000000 0.000000 7.168515 -0.455999 3.657654 -6.692510 2.193452 -21.039477 -1.109766 7.964797 26.832403 9.559614 -3.908559 -22.620719 0.000000 0.000000 0.000000 -26.596217 -7.344049 1.517433 -48.232106 -2.693774 -6.516674 5.603444 -23.565592 -0.108059 0.000000 0.000000 0.000000 32.782840 -3.117015 -2.686503 53.555546 3.809027 -6.460464 -4.407236 25.927393 0.620403 0.000000 0.000000 0.000000 
0.000181 0.937649 0.000126 -0.748341 -5.803793 1.834691 3.541750 0.137633 2.322065 -7.202201 0.842373 -1.838169 4.722488 11.147783 7.371825 0.000000 0.000000 0.000000 -3.173013 0.115320 0.157595 2.608530 -0.260329 -1.215230 -4.931011 -14.215043 9.091873 0.000000 0.000000 0.000000 7.784164 -0.428318 3.170394 -7.426283 2.420645 -20.437935 -1.377094 8.072681 26.241613 9.734418 -3.667800 -24.301589 0.000000 0.000000 0.000000 -25.880622 -6.545048 0.972332 -49.226183 -2.741469 -6.577181 8.003745 -23.690818 -0.592001 0.000000 0.000000 0.000000 32.821702 -3.907705 -3.229026 54.934470 2.743365 -6.973181 -4.730333 27.292577 0.628334 0.000000 0.000000 0.000000 
0.000357 0.937593 0.000080 -0.491893 -5.645261 1.915698 3.255674 0.105046 1.784291 -7.174270 0.857894 -1.137132 4.695176 11.093675 7.300331 0.000000 0.000000 0.000000 -3.398998 0.149110 -0.210928 2.520926 -0.245456 -0.725656 -5.068020 -14.438400 8.938326 0.000000 0.000000 0.000000 7.873241 -0.412854 2.979027 -7.802600 2.508131 -20.970513 -1.289023 7.022873 27.008492 9.199598 -3.717470 -23.170114 0.000000 0.000000 0.000000 -25.841348 -6.631450 1.434354 -49.683915 -3.380703 -6.564368 8.692869 -22.064055 -0.617591 0.000000 0.000000 0.000000 32.939822 -3.178610 -3.119960 54.430963 2.913908 -6.819479 -4.197362 25.729572 0.621660 0.000000 0.000000 0.000000 
0.000429 0.937895 0.000092 -0.321822 -5.749546 1.810967 2.921228 0.127530 1.991513 -6.940868 0.827085 -1.321532 4.715090 11.148833 7.481292 0.000000 0.000000 0.000000 -3.586387 0.174471 -0.482626 2.496577 -0.230943 -0.087246 -5.061321 -14.415178 8.834826 0.000000 0.000000 0.000000 7.922641 -0.404390 2.916210 -8.078836 2.592422 -20.811521 -1.230867 7.438064 26.989268 9.449062 -3.804480 -23.188756 0.000000 0.000000 0.000000 -25.909266 -7.155487 1.619342 -49.905323 -2.690937 -6.807627 9.443414 -22.267970 -0.781037 0.000000 0.000000 0.000000 34.119447 -3.573584 -3.351195 53.916278 2.816611 -6.876527 -4.669803 26.604316 0.583861 0.000000 0.000000 0.000000 
0.000402 0.938365 -0.000016 -0.216390 -5.631067 1.645566 2.750305 0.133079 2.017291 -6.801576 0.814981 -1.103547 4.648508 11.053505 7.600586 0.000000 0.000000 0.000000 -3.668260 0.172145 -0.430226 2.460222 -0.224131 0.139485 -5.106145 -14.509192 8.924506 0.000000 0.000000 0.000000 7.511859 -0.425537 3.270460 -7.355291 2.419267 -20.185277 -1.717644 7.265406 26.161942 9.480705 -3.891337 -22.678578 0.000000 0.000000 0.000000 -26.160691 -6.980355 1.473343 -49.864701 -2.554859 -6.769684 9.251956 -22.293934 -0.755622 0.000000 0.000000 0.000000 34.161108 -3.190825 -3.131305 53.873246 2.726212 -6.824217 -5.029023 25.868219 0.464933 0.000000 0.000000 0.000000 
0.000379 0.938689 -0.000167 -0.272624 -5.642454 1.574701 2.642849 0.150349 2.214741 -6.501311 0.773946 -1.321350 4.649662 11.067900 7.688162 0.000000 0.000000 0.000000 -3.822679 0.175290 -0.394570 2.848176 -0.258908 0.196995 -5.065351 -14.454445 9.046667 0.000000 0.000000 0.000000 7.347891 -0.455953 3.631052 -7.216156 2.367799 -20.494156 -1.667683 7.203001 26.164587 9.330555 -3.802492 -22.699102 0.000000 0.000000 0.000000 -26.098293 -7.060100 1.551251 -49.746406 -2.305817 -6.861320 8.667687 -22.237197 -0.644663 0.000000 0.000000 0.000000 34.522911 -3.081375 -3.118496 53.415906 2.401166 -6.916254 -4.848925 25.759810 0.485578 0.000000 0.000000 0.000000 
0.000313 0.938998 -0.000388 -0.268066 -5.639621 1.385004 2.484916 0.179776 2.540984 -6.216125 0.735848 -1.555991 4.630181 11.049624 7.790612 0.000000 0.000000 0.000000 -3.668959 0.162728 -0.312606 2.573343 -0.229994 0.398522 -5.065072 -14.460759 9.082655 0.000000 0.000000 0.000000 7.229778 -0.486586 4.015392 -7.138115 2.352026 -20.374728 -1.698436 7.041445 25.837379 9.423643 -3.860809 -22.788242 0.000000 0.000000 0.000000 -26.271042 -7.147522 1.633606 -49.486296 -1.904623 -6.961646 8.529924 -22.434483 -0.626274 0.000000 0.000000 0.000000 34.509891 -2.759433 -2.963500 53.380101 2.278293 -6.911298 -4.931588 25.992159 0.456893 0.000000 0.000000 0.000000 
0.000240 0.939116 -0.000603 -0.318558 -5.495780 1.335500 2.339398 0.190863 2.647825 -5.821503 0.686436 -1.684457 4.587699 10.978701 7.760968 0.000000 0.000000 0.000000 -3.606383 0.163343 -0.383403 2.596903 -0.228612 0.642600 -5.131514 -14.584227 9.118633 0.000000 0.000000 0.000000 7.048931 -0.512805 4.354556 -6.942373 2.289753 -20.661087 -1.708757 7.139418 25.929531 9.472492 -3.848864 -22.891926 0.000000 0.000000 0.000000 -26.376569 -7.492103 1.772791 -48.987685 -1.738771 -6.942957 7.914907 -22.606575 -0.529789 0.000000 0.000000 0.000000 34.908171 -2.529486 -2.729995 52.913068 2.474062 -6.829252 -4.938543 26.306251 0.469302 0.000000 0.000000 0.000000 
0.000134 0.939152 -0.000752 -0.328589 -5.579212 1.313346 2.215826 0.207669 2.811457 -5.590585 0.657852 -1.932041 4.625337 11.047555 7.806706 0.000000 0.000000 0.000000 -3.659157 0.164885 -0.368929 2.710513 -0.239424 0.623319 -5.086063 -14.503761 9.119467 0.000000 0.000000 0.000000 7.044150 -0.520751 4.444413 -7.005004 2.307659 -20.600953 -1.637967 7.228515 25.870299 9.500199 -3.873742 -22.803910 0.000000 0.000000 0.000000 -26.349677 -7.757574 1.924536 -48.781668 -1.782320 -6.887467 7.648229 -22.646272 -0.485977 0.000000 0.000000 0.000000 34.912855 -2.331114 -2.567004 52.778108 2.535199 -6.790818 -5.055530 26.675660 0.452349 0.000000 0.000000 0.000000 
0.000010 0.939112 -0.000796 -0.327208 -5.453484 1.130084 2.289801 0.234107 3.172095 -5.674984 0.660769 -2.231325 4.528362 10.888137 7.822434 0.000000 0.000000 0.000000 -3.649136 0.158049 -0.305267 2.725842 -0.236975 0.900879 -5.153785 -14.612538 9.062508 0.000000 0.000000 0.000000 7.028531 -0.531125 4.590750 -7.023225 2.323010 -20.443072 -1.687804 7.325063 25.877706 9.493969 -3.775761 -23.170735 0.000000 0.000000 0.000000 -26.248565 -8.053347 2.038048 -48.539083 -1.835923 -6.810830 7.336059 -22.882371 -0.444669 0.000000 0.000000 0.000000 35.162580 -2.145622 -2.350970 52.495997 2.871899 -6.657602 -5.333678 26.987265 0.410389 0.000000 0.000000 0.000000 
